<?xml version="1.0" encoding="iso-8859-1"?>
<!-- Generator: Adobe Illustrator 16.0.0, SVG Export Plug-In . SVG Version: 6.00 Build 0)  -->
<!DOCTYPE svg PUBLIC "-//W3C//DTD SVG 1.1//EN" "http://www.w3.org/Graphics/SVG/1.1/DTD/svg11.dtd">
<svg version="1.1" id="Capa_1" xmlns="http://www.w3.org/2000/svg" xmlns:xlink="http://www.w3.org/1999/xlink" x="0px" y="0px"
	 width="124.475px" height="124.475px" viewBox="0 0 124.475 124.475" stroke="#181818"
	 xml:space="preserve">
<g>
	<g>
		<circle cx="62.628" cy="16.307" r="12.671"/>
		<path d="M97.187,7.606c1.482-2.276,0.84-5.323-1.436-6.807c-2.276-1.484-5.324-0.84-6.808,1.436L69.91,31.439
			c-1.284-0.785-2.691-1.375-4.126-1.727L62.63,32.89l-3.062-3.212c-0.011,0.002-0.021,0.003-0.032,0.005
			c-1.667,0.399-3.302,1.118-4.749,2.098L35.531,2.235c-1.483-2.277-4.53-2.92-6.807-1.436c-2.277,1.484-2.918,4.531-1.436,6.807
			l21.38,32.807c0.279,0.427,0.618,0.79,0.991,1.099v27.185c0,2.165,0.672,4.098,1.797,5.729l-15.097,42.279
			c-1.079,3.024,0.497,6.352,3.521,7.431c0.645,0.229,1.306,0.34,1.954,0.34c2.388,0,4.626-1.482,5.476-3.861l14.557-40.77
			c0.254,0.013,0.506,0.031,0.762,0.031c0.711,0,1.417-0.062,2.113-0.162l14.604,40.898c0.849,2.378,3.087,3.861,5.475,3.861
			c0.649,0,1.31-0.11,1.955-0.34c3.024-1.08,4.601-4.406,3.521-7.431L74.66,72.911c0.594-1.274,0.938-2.686,0.938-4.216V40.728
			c0-0.012-0.001-0.023-0.001-0.034c0.07-0.093,0.146-0.182,0.21-0.281L97.187,7.606z"/>
	</g>
</g>
<g>
</g>
<g>
</g>
<g>
</g>
<g>
</g>
<g>
</g>
<g>
</g>
<g>
</g>
<g>
</g>
<g>
</g>
<g>
</g>
<g>
</g>
<g>
</g>
<g>
</g>
<g>
</g>
<g>
</g>
</svg>
